<svg width="30" height="30" viewBox="0 0 30 30" fill="none" xmlns="http://www.w3.org/2000/svg">
<g clip-path="url(#clip0)">
<path d="M12.6562 19.2191C13.174 19.2191 13.5938 18.7994 13.5938 18.2816C13.5938 17.7638 13.174 17.3441 12.6562 17.3441C12.1385 17.3441 11.7188 17.7638 11.7188 18.2816C11.7188 18.7994 12.1385 19.2191 12.6562 19.2191Z" fill="white"/>
<path d="M17.3438 23.9065C17.8615 23.9065 18.2812 23.4867 18.2812 22.969C18.2812 22.4512 17.8615 22.0315 17.3438 22.0315C16.826 22.0315 16.4062 22.4512 16.4062 22.969C16.4062 23.4867 16.826 23.9065 17.3438 23.9065Z" fill="white"/>
<path d="M24.8054 12.0033C24.604 11.5331 23.9058 11.68 23.9058 12.1839C23.9048 12.2368 23.869 13.3228 22.6199 13.8638C22.7387 12.9048 22.815 11.1575 22.2478 9.13189C21.2545 5.58429 18.5743 2.23228 13.3051 0.0367626C12.9593 -0.107199 12.5917 0.193732 12.6652 0.561399C13.1006 2.7384 13.2917 6.07993 12.3535 6.69292C11.9097 6.98295 11.1447 6.57351 10.5812 6.17907C10.3872 6.04325 10.1224 6.07348 9.96396 6.24949C9.91884 6.29953 8.85105 7.49611 8.06826 9.24234C7.08971 11.4253 7.00305 13.4961 7.80946 15.2646C6.78632 15.6245 6.05872 14.8197 5.5755 13.8533C5.3849 13.4721 4.82277 13.5239 4.70552 13.9341C4.6665 14.0707 3.75 17.3112 3.75 20.1565C3.75 25.9516 7.61399 30.0001 14.9997 30.0001C22.3873 30.0001 26.2495 25.9508 26.2495 20.1565C26.2495 15.4273 24.8643 12.1409 24.8054 12.0033ZM12.6561 16.4066C13.69 16.4066 14.5311 17.2477 14.5311 18.2816C14.5311 19.3154 13.69 20.1565 12.6561 20.1565C11.6222 20.1565 10.7811 19.3154 10.7811 18.2816C10.7811 17.2477 11.6222 16.4066 12.6561 16.4066ZM17.3435 24.8439C16.3096 24.8439 15.4685 24.0028 15.4685 22.969C15.4685 21.9351 16.3096 21.094 17.3435 21.094C18.3774 21.094 19.2184 21.9351 19.2184 22.969C19.2184 24.0028 18.3773 24.8439 17.3435 24.8439ZM19.0812 17.2068L11.5813 24.7066C11.4898 24.7982 11.3699 24.8439 11.2499 24.8439C10.8361 24.8439 10.6222 24.3399 10.9184 24.0437L18.4182 16.5439C18.6013 16.3608 18.898 16.3608 19.0811 16.5439C19.2642 16.7269 19.2642 17.0238 19.0812 17.2068Z" fill="white"/>
</g>
<defs>
<clipPath id="clip0">
<rect width="30" height="30" fill="white"/>
</clipPath>
</defs>
</svg>
