<svg width="30" height="30" viewBox="0 0 30 30" fill="none" xmlns="http://www.w3.org/2000/svg">
<path d="M21.5625 0.703125H16.875C16.4867 0.703125 16.1719 1.01792 16.1719 1.40625V2.8125C16.1719 3.20083 16.4867 3.51562 16.875 3.51562H21.5625C21.9508 3.51562 22.2656 3.20083 22.2656 2.8125V1.40625C22.2656 1.01792 21.9508 0.703125 21.5625 0.703125Z" fill="white"/>
<path d="M7.96875 11.0156H3.28125C3.09477 11.0156 2.91593 11.0897 2.78407 11.2216C2.6522 11.3534 2.57812 11.5323 2.57812 11.7188C2.57812 11.9052 2.6522 12.0841 2.78407 12.2159C2.91593 12.3478 3.09477 12.4219 3.28125 12.4219H7.96875C8.15523 12.4219 8.33407 12.3478 8.46593 12.2159C8.5978 12.0841 8.67188 11.9052 8.67188 11.7188C8.67188 11.5323 8.5978 11.3534 8.46593 11.2216C8.33407 11.0897 8.15523 11.0156 7.96875 11.0156Z" fill="white"/>
<path d="M7.73438 17.3438C7.73438 17.1573 7.6603 16.9784 7.52843 16.8466C7.39657 16.7147 7.21773 16.6406 7.03125 16.6406H2.34375C2.15727 16.6406 1.97843 16.7147 1.84657 16.8466C1.7147 16.9784 1.64062 17.1573 1.64062 17.3438C1.64062 17.5302 1.7147 17.7091 1.84657 17.8409C1.97843 17.9728 2.15727 18.0469 2.34375 18.0469H7.03125C7.21773 18.0469 7.39657 17.9728 7.52843 17.8409C7.6603 17.7091 7.73438 17.5302 7.73438 17.3438Z" fill="white"/>
<path d="M7.5 19.4531H4.21875C4.03227 19.4531 3.85343 19.5272 3.72157 19.6591C3.5897 19.7909 3.51562 19.9698 3.51562 20.1562C3.51562 20.3427 3.5897 20.5216 3.72157 20.6534C3.85343 20.7853 4.03227 20.8594 4.21875 20.8594H7.5C7.68648 20.8594 7.86532 20.7853 7.99718 20.6534C8.12905 20.5216 8.20312 20.3427 8.20312 20.1562C8.20312 19.9698 8.12905 19.7909 7.99718 19.6591C7.86532 19.5272 7.68648 19.4531 7.5 19.4531Z" fill="white"/>
<path d="M7.73438 14.5312C7.73438 14.3448 7.6603 14.1659 7.52843 14.0341C7.39657 13.9022 7.21773 13.8281 7.03125 13.8281H0.9375C0.75102 13.8281 0.572177 13.9022 0.440316 14.0341C0.308454 14.1659 0.234375 14.3448 0.234375 14.5312C0.234375 14.7177 0.308454 14.8966 0.440316 15.0284C0.572177 15.1603 0.75102 15.2344 0.9375 15.2344H7.03125C7.21773 15.2344 7.39657 15.1603 7.52843 15.0284C7.6603 14.8966 7.73438 14.7177 7.73438 14.5312Z" fill="white"/>
<path d="M19.2188 15.9375V7.96875C14.8247 7.96875 11.25 11.5435 11.25 15.9375C11.25 20.3315 14.8247 23.9062 19.2188 23.9062C23.6128 23.9062 27.1875 20.3315 27.1875 15.9375H19.2188Z" fill="white"/>
<path d="M26.9307 8.75115L27.6847 7.99717C27.7508 7.93207 27.8035 7.85452 27.8395 7.76899C27.8755 7.68345 27.8943 7.59163 27.8947 7.49881C27.8951 7.406 27.877 7.31402 27.8417 7.2282C27.8064 7.14238 27.7544 7.0644 27.6887 6.99877C27.6231 6.93313 27.5451 6.88115 27.4593 6.8458C27.3735 6.81046 27.2815 6.79245 27.1887 6.79283C27.0959 6.79321 27.004 6.81196 26.9185 6.848C26.833 6.88405 26.7554 6.93667 26.6903 7.00283L25.9056 7.78746C24.3945 6.5426 22.5655 5.74489 20.625 5.48437V4.21875H17.8125V5.48437C15.8721 5.74479 14.0431 6.54237 12.5319 7.78711L11.7472 7.00248C11.6821 6.93632 11.6045 6.8837 11.519 6.84765C11.4335 6.81161 11.3416 6.79286 11.2488 6.79248C11.156 6.7921 11.064 6.81011 10.9782 6.84545C10.8924 6.8808 10.8144 6.93278 10.7488 6.99842C10.6831 7.06405 10.6312 7.14202 10.5958 7.22785C10.5605 7.31367 10.5425 7.40565 10.5428 7.49846C10.5432 7.59128 10.562 7.6831 10.598 7.76864C10.634 7.85417 10.6867 7.93172 10.7528 7.99682L11.5068 8.7508C9.68346 10.6995 8.66993 13.2689 8.67188 15.9375C8.67188 21.753 13.4032 26.4844 19.2188 26.4844C25.0343 26.4844 29.7656 21.753 29.7656 15.9375C29.7675 13.269 28.754 10.6997 26.9307 8.75115ZM19.2188 24.6094C17.5036 24.6094 15.827 24.1008 14.4009 23.1479C12.9748 22.195 11.8633 20.8407 11.207 19.2561C10.5506 17.6715 10.3789 15.9279 10.7135 14.2457C11.0481 12.5635 11.874 11.0183 13.0868 9.80556C14.2996 8.59277 15.8448 7.76686 17.527 7.43225C19.2091 7.09765 20.9528 7.26938 22.5373 7.92573C24.1219 8.58209 25.4763 9.69358 26.4292 11.1197C27.382 12.5457 27.8906 14.2224 27.8906 15.9375C27.8906 17.0763 27.6663 18.204 27.2305 19.2561C26.7947 20.3082 26.156 21.2642 25.3507 22.0694C24.5454 22.8747 23.5895 23.5135 22.5373 23.9493C21.4852 24.3851 20.3576 24.6094 19.2188 24.6094Z" fill="white"/>
</svg>
