<svg width="30" height="30" viewBox="0 0 30 30" fill="none" xmlns="http://www.w3.org/2000/svg">
<path d="M27.0905 24.7714C27.5088 24.2081 27.7566 23.5111 27.7566 22.7572C27.7566 20.89 26.2375 19.3709 24.3702 19.3709C22.503 19.3709 20.9839 20.89 20.9839 22.7572C20.9839 23.5129 21.2329 24.2114 21.6528 24.7754C20.8616 25.1211 20.183 25.6768 19.6865 26.3717C19.1883 25.6741 18.5064 25.1168 17.7113 24.7714C18.1296 24.2081 18.3774 23.5111 18.3774 22.7572C18.3774 20.89 16.8583 19.3709 14.9911 19.3709C13.1239 19.3709 11.6047 20.89 11.6047 22.7572C11.6047 23.5129 11.8537 24.2114 12.2737 24.7754C11.484 25.1204 10.8064 25.6746 10.3103 26.3675C9.8123 25.6719 9.1315 25.1161 8.33802 24.7713C8.75627 24.208 9.00406 23.511 9.00406 22.7572C9.00406 20.89 7.48496 19.3708 5.61775 19.3708C3.75053 19.3708 2.23143 20.8899 2.23143 22.7572C2.23143 23.5129 2.4804 24.2113 2.90034 24.7754C1.22614 25.5069 0.0527344 27.1779 0.0527344 29.1186V30H29.9469V29.1186C29.947 27.1745 28.7695 25.5008 27.0905 24.7714Z" fill="white"/>
<path d="M21.0082 10.1463L17.2698 8.96425L14.9904 5.77405L12.7111 8.96425L8.97266 10.1463L11.3023 13.2999L11.2712 17.2206L14.9904 15.9795L18.7096 17.2206L18.6785 13.2999L21.0082 10.1463Z" fill="white"/>
<path d="M15.8857 0H14.123V2.52405H15.8857V0Z" fill="white"/>
<path d="M27.28 10.6035H24.7559V12.3661H27.28V10.6035Z" fill="white"/>
<path d="M5.24865 10.6035H2.72461V12.3661H5.24865V10.6035Z" fill="white"/>
<path d="M23.743 2.501L21.6641 4.57993L22.9104 5.82628L24.9893 3.74735L23.743 2.501Z" fill="white"/>
<path d="M6.25026 2.48909L5.00391 3.73544L7.08283 5.81436L8.32917 4.56801L6.25026 2.48909Z" fill="white"/>
</svg>
