<svg width="15" height="14" viewBox="0 0 15 14" fill="none" xmlns="http://www.w3.org/2000/svg">
<g clip-path="url(#clip0)">
<path d="M10.8394 14C10.3872 14 9.93884 13.9201 9.50041 13.7609C7.56889 13.0597 5.77603 11.9176 4.31558 10.4581C2.85514 8.99854 1.71234 7.20675 1.0107 5.27642C0.785234 4.65607 0.718696 4.0157 0.813004 3.37304C0.901348 2.77107 1.13467 2.18667 1.48777 1.68302C1.84243 1.17715 2.31525 0.756406 2.85511 0.466274C3.43081 0.156892 4.05917 0 4.7228 0C4.9292 0 5.10758 0.144123 5.15084 0.345802L5.83794 3.55033C5.86905 3.69544 5.82443 3.84642 5.71945 3.95137L4.54537 5.12469C5.65294 7.32539 7.45012 9.12147 9.65217 10.2284L10.8262 9.055C10.9312 8.95009 11.0823 8.90555 11.2275 8.93658L14.434 9.62327C14.6358 9.66649 14.78 9.84477 14.78 10.051C14.78 10.7143 14.623 11.3423 14.3134 11.9176C14.0231 12.4571 13.6021 12.9297 13.0959 13.2841C12.592 13.637 12.0072 13.8702 11.4049 13.9585C11.2161 13.9862 11.0274 14 10.8394 14ZM4.37304 0.894104C3.49767 0.990678 2.72072 1.44921 2.20478 2.18514C1.62459 3.01267 1.4893 4.03049 1.83359 4.9777C3.18252 8.6888 6.08593 11.5904 9.79931 12.9385C10.7471 13.2826 11.7655 13.1474 12.5936 12.5676C13.33 12.0519 13.7888 11.2755 13.8854 10.4006L11.2769 9.84203L10.0508 11.0674C9.92032 11.1978 9.72208 11.2325 9.55513 11.154C6.95079 9.93128 4.84269 7.82448 3.61918 5.22173C3.54074 5.05486 3.57537 4.85673 3.70585 4.72636L4.93199 3.50098L4.37304 0.894104Z" fill="black"/>
<path d="M14.3419 7.43719C14.1002 7.43719 13.9042 7.24131 13.9042 6.99971C13.9042 3.62252 11.1549 0.874964 7.77564 0.874964C7.53389 0.874964 7.33789 0.679082 7.33789 0.437482C7.33789 0.195883 7.53389 0 7.77564 0C9.64651 0 11.4054 0.72808 12.7282 2.05015C14.0511 3.37222 14.7797 5.13 14.7797 6.99971C14.7797 7.24131 14.5837 7.43719 14.3419 7.43719Z" fill="black"/>
<path d="M12.5909 7.43727C12.3491 7.43727 12.1531 7.24138 12.1531 6.99978C12.1531 4.58751 10.1894 2.62496 7.77564 2.62496C7.53389 2.62496 7.33789 2.42908 7.33789 2.18748C7.33789 1.94588 7.53389 1.75 7.77564 1.75C10.6722 1.75 13.0286 4.10505 13.0286 6.99978C13.0286 7.24138 12.8327 7.43727 12.5909 7.43727Z" fill="black"/>
<path d="M10.8399 7.43709C10.5981 7.43709 10.4021 7.24121 10.4021 6.99961C10.4021 5.55223 9.22391 4.37472 7.77564 4.37472C7.53389 4.37472 7.33789 4.17884 7.33789 3.93724C7.33789 3.69564 7.53389 3.49976 7.77564 3.49976C9.70667 3.49976 11.2776 5.06977 11.2776 6.99961C11.2776 7.24121 11.0817 7.43709 10.8399 7.43709Z" fill="black"/>
</g>
<defs>
<clipPath id="clip0">
<rect width="14.0086" height="14" fill="white" transform="translate(0.771484)"/>
</clipPath>
</defs>
</svg>
