<svg width="80" height="80" viewBox="0 0 80 80" fill="none" xmlns="http://www.w3.org/2000/svg">
<circle cx="40" cy="40" r="39" stroke="#F2A800" stroke-width="2"/>
<path d="M52.4472 51.9352C52.1602 52.2186 51.8294 52.4487 51.464 52.6192L44.8348 55.7129C43.5312 56.3213 41.9386 56.0896 40.8623 55.013C39.8208 53.9716 39.5395 52.3752 40.1623 51.0403L43.2559 44.4109C43.4297 44.0387 43.6652 43.7026 43.9557 43.412L53.9219 33.4458V23.5156C53.9219 21.5771 52.3448 20 50.4062 20H27.5156C25.5771 20 24 21.5771 24 23.5156V56.4844C24 58.4229 25.5771 60 27.5156 60H50.4062C52.3448 60 53.9219 58.4229 53.9219 56.4844V50.4788L52.4472 51.9352ZM30.2501 27.5781H47.7501C48.3973 27.5781 48.922 28.1028 48.922 28.75C48.922 29.3972 48.3973 29.9219 47.7501 29.9219H30.2501C29.6029 29.9219 29.0782 29.3972 29.0782 28.75C29.0782 28.1028 29.6029 27.5781 30.2501 27.5781ZM30.2501 33.8281H44.0001C44.6473 33.8281 45.172 34.3528 45.172 35C45.172 35.6472 44.6473 36.1719 44.0001 36.1719H30.2501C29.6029 36.1719 29.0782 35.6472 29.0782 35C29.0782 34.3528 29.6029 33.8281 30.2501 33.8281ZM29.0782 41.25C29.0782 40.6028 29.6029 40.0781 30.2501 40.0781H40.2501C40.8973 40.0781 41.422 40.6028 41.422 41.25C41.422 41.8972 40.8973 42.4219 40.2501 42.4219H30.2501C29.6029 42.4219 29.0782 41.8972 29.0782 41.25Z" fill="white"/>
</svg>

