<svg width="80" height="80" viewBox="0 0 80 80" fill="none" xmlns="http://www.w3.org/2000/svg">
<circle cx="40" cy="40" r="39" stroke="#F2A800" stroke-width="2"/>
<path d="M60.0006 43.75C60.0006 42.7484 59.604 41.815 58.9156 41.1267C59.694 40.275 60.0906 39.1333 59.9823 37.945C59.7873 35.8267 57.8789 34.1667 55.6356 34.1667H45.3406C45.8506 32.6183 46.6673 29.78 46.6673 27.5C46.6673 23.885 43.5956 20.8334 41.6673 20.8334C39.9356 20.8334 38.6989 21.8084 38.6456 21.8484C38.449 22.0067 38.334 22.2467 38.334 22.5V28.1517L33.534 38.55L33.334 38.6517V56.515C34.6906 57.155 36.4073 57.5 37.5006 57.5H52.799C54.614 57.5 56.2023 56.2767 56.5756 54.5884C56.7673 53.72 56.6556 52.845 56.274 52.085C57.5056 51.465 58.334 50.1967 58.334 48.75C58.334 48.16 58.199 47.595 57.9423 47.0834C59.174 46.4634 60.0006 45.195 60.0006 43.75Z" fill="white"/>
</svg>
