<svg width="80" height="80" viewBox="0 0 80 80" fill="none" xmlns="http://www.w3.org/2000/svg">
<path d="M20 37.575V47.9269C20 50.908 22.4166 53.3246 25.3976 53.3246H54.6024C57.5834 53.3246 60 50.908 60 47.9269V37.575C60 37.0565 59.5797 36.6362 59.0613 36.6362H20.9387C20.4203 36.6362 20 37.0565 20 37.575ZM29.987 44.146H27.4837C26.5764 44.146 25.841 43.4105 25.841 42.5032C25.841 41.596 26.5764 40.8605 27.4837 40.8605H29.987C30.8942 40.8605 31.6297 41.596 31.6297 42.5032C31.6297 43.4105 30.8942 44.146 29.987 44.146Z" fill="white"/>
<circle cx="40" cy="40" r="39" stroke="#F2A800" stroke-width="2"/>
</svg>
