<svg width="80" height="80" viewBox="0 0 80 80" fill="none" xmlns="http://www.w3.org/2000/svg">
<circle cx="40" cy="40" r="39" stroke="#F2A800" stroke-width="2"/>
<path d="M51.008 20H28.9906C26.8688 20 25.1426 21.7263 25.1426 23.848V56.152C25.1426 58.2738 26.8688 60 28.9906 60H51.008C53.1298 60 54.856 58.2738 54.856 56.152V23.848C54.856 21.7263 53.1298 20 51.008 20ZM30.4167 26.6481C30.4167 26.0009 30.9414 25.4763 31.5886 25.4763H48.4099C49.0571 25.4763 49.5818 26.0009 49.5818 26.6481V28.962C49.5818 29.6092 49.0571 30.1339 48.4099 30.1339H31.5886C30.9414 30.1339 30.4167 29.6092 30.4167 28.962V26.6481ZM34.3621 52.9622C34.3621 53.6094 33.8374 54.1341 33.1902 54.1341H31.5887C30.9415 54.1341 30.4168 53.6094 30.4168 52.9622V51.8519C30.4168 51.2047 30.9415 50.68 31.5887 50.68H33.1902C33.8374 50.68 34.3621 51.2047 34.3621 51.8519V52.9622ZM34.3621 46.027C34.3621 46.6742 33.8374 47.1989 33.1902 47.1989H31.5887C30.9415 47.1989 30.4168 46.6742 30.4168 46.027V44.9167C30.4168 44.2695 30.9415 43.7448 31.5887 43.7448H33.1902C33.8374 43.7448 34.3621 44.2695 34.3621 44.9167V46.027ZM42.068 52.9622C42.068 53.6094 41.5433 54.1341 40.8961 54.1341H39.2945C38.6473 54.1341 38.1227 53.6094 38.1227 52.9622V51.8519C38.1227 51.2047 38.6473 50.68 39.2945 50.68H40.8961C41.5433 50.68 42.068 51.2047 42.068 51.8519V52.9622ZM42.068 46.027C42.068 46.6742 41.5433 47.1989 40.8961 47.1989H39.2945C38.6473 47.1989 38.1227 46.6742 38.1227 46.027V44.9167C38.1227 44.2695 38.6473 43.7448 39.2945 43.7448H40.8961C41.5433 43.7448 42.068 44.2695 42.068 44.9167V46.027ZM42.068 39.0918C42.068 39.7391 41.5433 40.2637 40.8961 40.2637H31.5886C30.9414 40.2637 30.4167 39.739 30.4167 39.0918V37.9815C30.4167 37.3343 30.9414 36.8096 31.5886 36.8096H40.8961C41.5433 36.8096 42.068 37.3343 42.068 37.9815V39.0918ZM49.7738 52.9622C49.7738 53.6094 49.2491 54.1341 48.602 54.1341H47.0004C46.3532 54.1341 45.8285 53.6094 45.8285 52.9622V51.8519C45.8285 51.2047 46.3532 50.68 47.0004 50.68H48.602C49.2491 50.68 49.7738 51.2047 49.7738 51.8519V52.9622ZM49.7738 46.027C49.7738 46.6742 49.2491 47.1989 48.602 47.1989H47.0004C46.3532 47.1989 45.8285 46.6742 45.8285 46.027V44.9167C45.8285 44.2695 46.3532 43.7448 47.0004 43.7448H48.602C49.2491 43.7448 49.7738 44.2695 49.7738 44.9167V46.027ZM49.7738 39.0918C49.7738 39.7391 49.2491 40.2637 48.602 40.2637H47.0004C46.3532 40.2637 45.8285 39.739 45.8285 39.0918V37.9815C45.8285 37.3343 46.3532 36.8096 47.0004 36.8096H48.602C49.2491 36.8096 49.7738 37.3343 49.7738 37.9815V39.0918Z" fill="white"/>
</svg>
